<svg width="52" height="50" fill="none" xmlns="http://www.w3.org/2000/svg"><path d="M51.43 40.97L40.73 30.3a1.92 1.92 0 0 0-2.35-.29l-6-6a.79.79 0 0 0-1.12 1.12l5.97 5.95-2.2 2.2-10.94-10.93 2.2-2.2 1.46 1.47a.79.79 0 0 0 1.11-1.11l-1.46-1.47 3.8-3.8.31.3a1.97 1.97 0 0 0 2.8 0l1.4-1.4a1.97 1.97 0 0 0 0-2.8L24.95.58a1.97 1.97 0 0 0-2.8 0l-1.4 1.4a1.97 1.97 0 0 0 0 2.8l.3.3L8.98 17.11l-.3-.3a1.99 1.99 0 0 0-2.81 0l-1.4 1.4a1.97 1.97 0 0 0 0 2.8l10.77 10.76a1.97 1.97 0 0 0 2.8 0l1.41-1.4c.77-.77.77-2.03 0-2.8l-.3-.3 3.81-3.8 10.99 10.96a1.9 1.9 0 0 0 .28 2.35l10.7 10.68a1.92 1.92 0 0 0 2.72 0l3.77-3.77a1.91 1.91 0 0 0 0-2.72zM21.85 3.1l1.4-1.4a.4.4 0 0 1 .58 0L34.6 12.44a.4.4 0 0 1 0 .58l-1.4 1.4a.42.42 0 0 1-.57 0L21.85 3.67a.4.4 0 0 1 0-.57zm-3.5 26.16l-1.4 1.4a.42.42 0 0 1-.58 0L5.59 19.9a.4.4 0 0 1 0-.57l1.4-1.4a.4.4 0 0 1 .58 0l10.78 10.75a.4.4 0 0 1 0 .58zm4.06-7.47l-4.37 4.37-7.94-7.94L22.15 6.2l7.94 7.93-4.36 4.36-3.32 3.3zm27.9 20.79l-3.76 3.77a.35.35 0 0 1-.5 0l-10.7-10.68a.35.35 0 0 1 0-.5l.24-.22 3.54-3.54a.35.35 0 0 1 .5 0l10.69 10.68a.35.35 0 0 1 0 .49z" fill="#03973D"/><path d="M29.94 43.02h-1.2v-4.14c0-.93-.76-1.68-1.69-1.68H13.46a.79.79 0 1 0 0 1.57h13.6c.05 0 .1.05.1.1v4.15H6.2v-4.14c0-.06.05-.1.1-.1h2.2a.79.79 0 1 0 0-1.58h-2.2c-.92 0-1.68.75-1.68 1.68v4.14h-1.2A3.43 3.43 0 0 0 0 46.44v2.24C0 49.41.6 50 1.32 50h30.73c.73 0 1.32-.59 1.32-1.32v-2.24a3.43 3.43 0 0 0-3.43-3.42zm1.85 5.4H1.58v-1.98c0-1.01.83-1.84 1.84-1.84h26.52c1.02 0 1.85.83 1.85 1.84v1.99z" fill="#03973D"/></svg>
