<svg width="50" height="50" fill="none" xmlns="http://www.w3.org/2000/svg"><path d="M33.924 37.632h-7.171c-.485 0-.878.357-.878.798v6.516c0 .44.393.797.878.797h7.17c.486 0 .879-.357.879-.797V38.43c0-.44-.393-.798-.878-.798zm-.878 6.516H27.63v-4.92h5.415v4.92zM23.244 37.632h-7.17c-.486 0-.879.357-.879.798v6.516c0 .44.393.797.878.797h7.171c.485 0 .878-.357.878-.797V38.43c0-.44-.393-.798-.878-.798zm-.878 6.516h-5.415v-4.92h5.415v4.92zM23.244 27.926h-7.17c-.486 0-.879.357-.879.798v6.516c0 .44.393.797.878.797h7.171c.485 0 .878-.357.878-.797v-6.516c0-.441-.393-.798-.878-.798zm-.878 6.516h-5.415v-4.92h5.415v4.92zM12.564 37.632h-7.17c-.485 0-.878.357-.878.798v6.516c0 .44.393.797.878.797h7.17c.485 0 .879-.357.879-.797V38.43c0-.44-.394-.798-.879-.798zm-.878 6.516H6.272v-4.92h5.414v4.92zM44.607 21.542h-7.17c-.485 0-.878.357-.878.798v3.191c0 .441.393.798.878.798h7.17c.485 0 .878-.357.878-.798V22.34c0-.44-.393-.798-.878-.798zm-.878 3.191h-5.414v-1.595h5.414v1.595zM33.924 27.926h-7.171c-.485 0-.878.357-.878.798v6.516c0 .44.393.797.878.797h7.17c.486 0 .879-.357.879-.797v-6.516c0-.441-.393-.798-.878-.798zm-.878 6.516H27.63v-4.92h5.415v4.92zM12.564 27.926h-7.17c-.485 0-.878.357-.878.798v6.516c0 .44.393.797.878.797h7.17c.485 0 .879-.357.879-.797v-6.516c0-.441-.394-.798-.879-.798zm-.878 6.516H6.272v-4.92h5.414v4.92zM33.924 21.542h-7.171c-.485 0-.878.357-.878.798v3.191c0 .441.393.798.878.798h7.17c.486 0 .879-.357.879-.798V22.34c0-.44-.393-.798-.878-.798zm-.878 3.191H27.63v-1.595h5.415v1.595z" fill="#03973D"/><path d="M45.427 0H4.573C2.051 0 0 1.79 0 3.99v42.02C0 48.21 2.051 50 4.573 50h40.854C47.949 50 50 48.21 50 46.01V3.99C50 1.79 47.949 0 45.427 0zm2.744 46.01c0 1.32-1.231 2.394-2.744 2.394H4.573c-1.513 0-2.744-1.074-2.744-2.393V3.989c0-1.32 1.231-2.393 2.744-2.393h40.854c1.513 0 2.744 1.073 2.744 2.393v42.022z" fill="#03973D"/><path d="M44.607 27.926h-7.17c-.485 0-.878.357-.878.798v16.223c0 .44.393.798.878.798h7.17c.485 0 .878-.357.878-.798v-9.84c0-.441-.393-.798-.878-.798s-.878.357-.878.798v9.042h-5.414V29.521h5.414v2.394c0 .44.393.798.878.798s.878-.357.878-.798v-3.191c0-.441-.393-.798-.878-.798zM44.613 4.254H5.393c-.484 0-.877.357-.877.798v13.032c0 .44.393.798.878.798h7.17c.485 0 .879-.358.879-.798 0-.44-.394-.798-.879-.798H6.272V5.85h37.463v11.436H16.077c-.485 0-.878.357-.878.798 0 .44.393.798.878.798h28.536c.485 0 .878-.358.878-.798V5.052c0-.44-.393-.798-.878-.798z" fill="#03973D"/><path d="M37.585 9.043h3.512c.485 0 .878-.357.878-.798 0-.44-.393-.798-.878-.798h-3.512c-.485 0-.878.357-.878.798 0 .44.393.798.878.798zM37.585 15.425h3.512c.485 0 .878-.357.878-.798 0-.44-.393-.798-.878-.798h-3.512c-.485 0-.878.357-.878.798 0 .44.393.798.878.798zM36.707 12.5c0 .44.393.798.878.798s.878-.358.878-.798v-2.128c0-.44-.393-.798-.878-.798s-.878.357-.878.798V12.5z" fill="#03973D"/></svg>
