<svg width="48" height="39" fill="#03973D" xmlns="http://www.w3.org/2000/svg"><path d="M47.846 21.682a.702.702 0 0 0-.99-.115l-1.382 1.101-11.17-14.74L40.69 3.81a.71.71 0 0 0 .212-.978.702.702 0 0 0-.973-.213L32.901 7.15a.719.719 0 0 0-.18 1.025l1.28 1.688-.91.7-3.61-1.2a.716.716 0 0 0-.222-.035h-8.266a.705.705 0 0 0-.683.536l-.465 1.87-1.174-.496a.7.7 0 0 0-.355-.051l-3.266.384-1.11-.647 1.055-1.838a.717.717 0 0 0-.257-.967L1.057.181a.702.702 0 0 0-.962.26.71.71 0 0 0 .257.966L11.074 7.63 1.821 23.74l-.764-.444a.702.702 0 0 0-.962.26.71.71 0 0 0 .257.967l3.723 2.16a.71.71 0 0 0 .962-.259l.54-.938 1.519.815a2.99 2.99 0 0 0 .229 3.11 2.952 2.952 0 0 0 3.312 1.085c.002.632.202 1.24.582 1.748a2.961 2.961 0 0 0 3.268 1.04 2.966 2.966 0 0 0 2.962 2.93c.306 0 .608-.047.896-.14.009.606.2 1.194.562 1.696A2.938 2.938 0 0 0 21.31 39c.618 0 1.218-.193 1.728-.564l1.644-1.196a2.97 2.97 0 0 0 .85-.958l2.89 1.584a2.931 2.931 0 0 0 2.252.242 2.942 2.942 0 0 0 1.763-1.43 2.963 2.963 0 0 0 .342-1.755 2.96 2.96 0 0 0 3.135-1.501 2.97 2.97 0 0 0 .34-1.755 2.96 2.96 0 0 0 3.137-1.501 2.964 2.964 0 0 0 .343-1.754 2.903 2.903 0 0 0 1.372-.072 2.942 2.942 0 0 0 1.763-1.43 2.968 2.968 0 0 0 .031-2.788l1.236-.881.653.861a.71.71 0 0 0 .998.126l1.945-1.55a.71.71 0 0 0 .114-.995zM4.17 25.102l-1.13-.655 9.254-16.11 1.129.655-9.253 16.11zm6.46 3.827a1.546 1.546 0 0 1-2.164-.348 1.565 1.565 0 0 1 .347-2.176l4.984-3.624a1.54 1.54 0 0 1 2.138.313 1.578 1.578 0 0 1-.32 2.21L10.63 28.93zm3.861 2.786a1.552 1.552 0 0 1-2.146-.324c-.522-.697-.321-1.727.37-2.23l3.725-2.709c.135-.09.26-.186.413-.25a1.527 1.527 0 0 1 1.829.488 1.578 1.578 0 0 1-.32 2.21l-3.871 2.815zm3.86 2.786a1.532 1.532 0 0 1-1.153.276 1.539 1.539 0 0 1-1.01-.625 1.564 1.564 0 0 1 .346-2.174l2.654-1.93.103-.076a1.537 1.537 0 0 1 2.138.313 1.577 1.577 0 0 1-.32 2.211l-2.758 2.005zm6.13.554c-.061.42-.283.788-.625 1.037l-1.644 1.195a1.56 1.56 0 0 1-2.164-.349 1.578 1.578 0 0 1 .347-2.175l1.54-1.12.104-.075a1.553 1.553 0 0 1 2.442 1.487zm17.15-8.824a1.56 1.56 0 0 1-2.102.622l-8.145-4.462a.703.703 0 0 0-.956.283.71.71 0 0 0 .282.96l6.825 3.74c.75.411 1.028 1.36.62 2.113a1.548 1.548 0 0 1-2.103.623l-6.926-3.794a.703.703 0 0 0-.955.282.71.71 0 0 0 .281.961l5.607 3.072a1.564 1.564 0 0 1 .618 2.112 1.56 1.56 0 0 1-2.103.623l-5.87-3.216a.703.703 0 0 0-.955.283.71.71 0 0 0 .281.96l4.55 2.493A1.576 1.576 0 0 1 31.2 36a1.56 1.56 0 0 1-2.103.623l-3.192-1.749a2.956 2.956 0 0 0-.611-1.854 2.942 2.942 0 0 0-2.2-1.165c.012-.063.024-.126.034-.19a2.962 2.962 0 0 0-.581-2.24 2.943 2.943 0 0 0-2.201-1.166 2.962 2.962 0 0 0-.547-2.43 2.943 2.943 0 0 0-2.2-1.165 2.961 2.961 0 0 0-.547-2.43 2.934 2.934 0 0 0-4.08-.599L8.054 25.21l-1.774-.95 6.954-12.108 1.31.764a.703.703 0 0 0 .435.091l3.315-.39 1.204.51-.692 2.782a.714.714 0 0 0-.021.171v6.043c0 2.056 1.664 3.729 3.71 3.729 2.046 0 3.71-1.673 3.71-3.73v-5.838l.128-.206 14.678 8.04a1.576 1.576 0 0 1 .62 2.114zm.337-3.181a2.994 2.994 0 0 0-.281-.176l-14.604-8 .542-.872a.71.71 0 0 0-.225-.976.702.702 0 0 0-.97.226l-1.525 2.452a.713.713 0 0 0-.108.375v6.043a2.31 2.31 0 0 1-2.3 2.313 2.31 2.31 0 0 1-2.302-2.313v-5.955l1.348-5.422h7.603l3.856 1.28c.22.074.466.032.65-.11l1.202-.924 8.428 11.121-1.314.938z"/></svg>