<svg width="50" height="50" xmlns="http://www.w3.org/2000/svg" fill="none"><g clip-path="url(#a)" fill="#03973D"><path d="M45.8 0H32.5C29.9 0 28 1 26 2.9c-.3.3-.3.8 0 1.2.4.3.9.3 1.2 0 1.7-1.7 3.1-2.3 5.3-2.3h13.3c1.4 0 2.5 1.1 2.5 2.5v13.3c0 2.1-.6 3.6-2.2 5.2L21.3 47.4c-1 1-2.6 1-3.5 0L2.4 32.2c-.5-.5-.7-1.1-.7-1.8s.2-1.3.7-1.8L24.8 6.4l1 .2c3.5 1 6.1 1.9 8.1 2.7a5 5 0 1 0 9.4 2.4 5 5 0 0 0-5-5c-.4 0-.8.4-.8.8 0 .5.4.8.8.8a3.3 3.3 0 1 1 0 6.7 3.3 3.3 0 0 1-2.8-5c1.4.7 2.3 1.2 2.7 1.6l-.8.1a.8.8 0 0 0 0 1.7h.2c.5 0 2-.2 2.3-1.3.8-3-11.2-6.4-13.6-7-3.7-1-7.3-1.8-10-2-3.4-.3-5 .1-5.4 1.3-.1.5-.5 2 6.2 4.7.5.1 1 0 1.1-.5.2-.4 0-1-.4-1a16.4 16.4 0 0 1-5.1-2.8c1-.3 4.5-.2 10.2 1.1L1.2 27.5a4.2 4.2 0 0 0 0 5.8l15.4 15.3a4.2 4.2 0 0 0 5.9 0l24.7-24.7c2-2 2.8-3.8 2.8-6.4V4.2C50 2 48 .1 45.8.1zm-2.5 29.6a.8.8 0 0 0-1.1.2l-9.6 15.8a2.5 2.5 0 0 1-3.4 1l-1.9-1.2a.8.8 0 0 0-1.1.2c-.3.4-.1.9.2 1.1l2 1.2a4.3 4.3 0 0 0 5.6-1.5l9.6-15.7c.2-.4.1-1-.3-1.1zM45 34a.8.8 0 0 0-1 .6l-1.1 11.9a2.5 2.5 0 0 1-3 1.8l-2.1-.5a.8.8 0 0 0-1 .5c-.2.4 0 .9.5 1l2.2.6c.7.2 1.5.1 2.2 0a4 4 0 0 0 2.8-3l1-12a.8.8 0 0 0-.5-.9z"/></g><defs><clipPath id="a"><path fill="#fff" d="M0 0h50v50H0z"/></clipPath></defs></svg>
