<svg width="50" height="50" fill="#03973D" xmlns="http://www.w3.org/2000/svg"><path d="M21.08 12.254c2.616 2.618 6.388 2.75 7.118 2.75l3.471-.001v15.832a.833.833 0 1 0 1.665 0V10.032c.008-.179.144-4.399-2.747-7.29C28.045.199 24.507 0 23.483 0l-4.311.002a.833.833 0 0 0-.834.833l.001 4.128c-.008.179-.15 4.399 2.742 7.291zm-1.075-7.256v-3.33l3.478-.001c.613 0 3.782.108 5.926 2.254 2.366 2.366 2.264 6.01 2.262 6.077v2.152l-8.577-8.577a.832.832 0 1 0-1.178 1.179l8.584 8.584-2.302.002c-.614 0-3.788-.11-5.94-2.263-2.363-2.365-2.255-6.007-2.253-6.077zM34.999 20.83c0 .114.02.226.065.332.006.013.017.022.023.034a.81.81 0 0 0 .154.232.8.8 0 0 0 .215.143c.019.01.033.026.053.035a.84.84 0 0 0 .322.066h.006l4.123-.002.176.003c.73 0 4.502-.132 7.115-2.746 2.894-2.892 2.751-7.112 2.744-7.256V7.505a.833.833 0 0 0-.833-.834l-4.131.001-.176-.003c-.73 0-4.5.132-7.115 2.747-2.892 2.891-2.748 7.112-2.74 7.256v4.159h-.001zm3.919-10.236c2.15-2.15 5.322-2.258 5.936-2.258l3.475.002v3.366c.001.037.11 3.68-2.256 6.045-2.148 2.15-5.322 2.258-5.937 2.258l-2.293-.001 8.578-8.579a.832.832 0 1 0-1.178-1.178l-8.578 8.577v-2.19c-.002-.036-.126-3.662 2.253-6.042zm8.61 22.853a3.266 3.266 0 0 0-2.477.305l-9.591 4.669c-1.49.746-2.996.746-6.294.746-3.224 0-8.146-.815-8.196-.822a.833.833 0 1 0-.274 1.643c.207.035 5.107.845 8.47.845 3.46 0 5.197 0 7.03-.917l9.636-4.693a1.656 1.656 0 0 1 1.264-.166c.43.115.79.391 1.012.776.46.796.186 1.818-.633 2.291l-11.267 7.013c-.023.015-2.427 1.53-7.875 1.53-4.724 0-12.022-4.022-12.127-4.08-.076-.037-1.884-.92-5.373-.92a.833.833 0 1 0 0 1.666c3.031 0 4.593.73 4.596.73v-.002c.315.175 7.747 4.272 12.904 4.272 6.016 0 8.684-1.733 8.773-1.792l11.226-6.988A3.339 3.339 0 0 0 49.552 35a3.31 3.31 0 0 0-2.024-1.553zM4.168 44.584a1.25 1.25 0 1 0-2.5 0 1.25 1.25 0 0 0 2.5 0z"/><path d="M5.833 26.667h-5a.833.833 0 1 0 0 1.667h5c.46 0 .833.374.833.833V47.5c0 .46-.373.834-.833.834h-5a.833.833 0 1 0 0 1.666h5c1.378 0 2.5-1.121 2.5-2.5V29.167c0-1.378-1.122-2.5-2.5-2.5zm5 5H17.5c.972 0 2.625 1.24 4.083 2.333 1.828 1.372 3.556 2.667 5.083 2.667h5c1.266 0 1.894.574 1.91.589a.83.83 0 0 0 1.18 0 .833.833 0 0 0 0-1.178c-.11-.11-1.134-1.078-3.09-1.078h-5c-.972 0-2.625-1.24-4.083-2.333C20.755 31.295 19.027 30 17.5 30h-6.667a.833.833 0 1 0 0 1.667z"/></svg>