<svg width="122" height="40" viewBox="0 0 122 40" xmlns="http://www.w3.org/2000/svg"><circle fill="#fff" cx="20" cy="20" r="20"></circle><path fill="#039BE6" d="M14.5 14.8c-.2-2-.6-3.9-1-5.8 0-.1 0-.1-.1-.2 0-.1 0-.1-.1-.2-.1-.2-.1-.3-.1-.5-.1-.3-.2-.7-.3-1.1-.1-.3-.4-.8-.7-.8-.3 0-.5.5-.6.8-.2.3-.3.7-.3 1.1v.7c.1.9.3 1.6.6 2.2l.3.6c.6 1.2 1.4 2.2 2.3 3.2zm19.7-9C26.3-2 13.7-1.9 5.9 5.9c-7.8 7.8-7.8 20.5 0 28.3 2.2 2.2 5 3.9 8 4.9l.2-1.8v-3.6c.8.2 1.6.3 2.3.5-.4.1-.5.5-.5.9v.2c0 1.7.4 3 .7 4.4 4.6.8 9.4 0 13.5-2.3V37l.1-1.1v-.3c0-1-.3-2.2-1.2-2.3-.7-.1-1.1.2-1.6.4 1.1-1.2 1.9-2.7 2-4.9v-.6c-.2-2.7-1.3-4.4-2.4-6.1-.1-.1-.2-.2-.3-.4-.1-.1-.2-.2-.3-.4h.1c.6-.2.9-.7 1.1-1.3.1-.4.2-.8.2-1.2v-.5c0-.2 0-.3-.1-.4l-.1-.2c-.1-.2-.2-.4-.4-.6-.2-.2-.4-.4-.5-.6-.1-1.1.2-2 .5-2.8 0-.1.1-.2.2-.3 0-.1 0-.1.1-.2 0-.1.1-.2.1-.2 0-.2.1-.4.1-.5v-.4c-.1-1.1-.3-2-.5-2.9 0 0 0-.1-.1-.2-.7-2.3-1.8-4.2-3.9-5.2-.2-.1-.4-.2-.6-.2l-.3.1h-.1c-.1.2-.1.4-.1.7.1.2.2.4.3.5.8 1.2 1.5 2.4 2.2 3.7.1.1.1.2.1.3.1.1.1.2.1.2l.1.2s.1.1.1.2c.5 1.2 1.1 2.3 1.2 3.9v.5c0 .2 0 .4-.1.6 0 .1 0 .1-.1.2 0 .1 0 .1-.1.1-.1.3-.4.6-.7.7l-.2.1c-.2 0-.5-.2-.7-.3-.1 0-.1 0-.1-.1-.1 0-.2-.1-.2-.1-.3-.1-.5-.2-.7-.2-.1 0-.2 0-.3-.1-.5-.1-1-.2-1.4-.2h-1.3l-2.3.3-.3.1-.4.1c-.1.1-.2.1-.4.1l-.2.1-.7.3h-.1c-1.7.9-3 2.1-3.8 3.9l-.1.3c0 .1-.1.2-.1.2l-.1.4v.1c-.5.3-.9.6-1.4 1l-.5.4-.4.4c-.3.3-.7.8-1 1.3-.1.2-.3.6.1.6h.2c.3-.2.5-.2.8-.2h.5c.7 0 1.4.2 2 .4.3.1.6.3 1.1.3-.3.1-.7.1-1 .1-1 .1-1.6.6-2.2 1.1-.1.1-.2.3-.4.4-.1.2-.3.2-.3.5s.3.4.6.6c.7.3 1.5.5 2.3.6.2 0 .4.1.5.1.1 0 .3 0 .4-.1.4-.1 1-.1 1.1.2.1.3-.1.7-.2.9-.1.2-.1.3-.1.5.1.4.3.7.6 1l.3.3c1 .8 2.2 1.5 3.5 2 1.2.5 2.3.9 3.5 1.2.2 0 .4.1.5.2-.3.1-.7.1-1 .1h-.8c-1.3-.1-2.6-.3-3.9-.6l-3-.9-.4-.2-.4.1c-.5.1-.9.2-1.4.2h-.5c-1.5-.1-2.3-.8-2.5-2.2-.3.2-.5.2-.7.2-1.2 0-1.3-1.7-.9-2.6.1-.3.3-.4.5-.6.4-.4.5-1.1.2-1.7l-.5-.6c-.2-.4-.1-.9.1-1.2l.6-1c.4-.7 1-1.2 1.5-1.7l.2-.2c0-.1.1-.1.1-.1l.2-.2c0-.1.1-.1.2-.2l.5-.5v-.5l.1-.6c.5-1.3 1.6-2.2 2.7-3-.8-.9-1.4-1.9-1.9-2.9-.1-.1-.1-.2-.1-.3-.2-.4-.4-.9-.5-1.3l-.1-.2c-.4-.8-.5-1.7-.6-2.6V8c.1-.8.3-1.6.6-2.4l.3-.7c.4-.4 1.1-.8 1.8-.4.5.4.8 1 1 1.8l.5 2.3c.1.7.4 1.5.6 2.2l.1.2.3.6c.1.1.1.1.1.2.4.6.8 1.2 1.4 1.7.2.1.4.4.6.4h3.3c1.2-.1 2.4-.1 3.4-.5l.3-.2v-.5c-.1-1.3-.4-2.5-.8-3.7l-.1-.2-.1-.3c-.3-.7-.6-1.3-1-2-.4-.6-.9-1.2-.9-2v-.4c0-.1 0-.2.1-.3 0 0 0-.1.1-.1.1-.2.3-.4.5-.5.2-.1.4-.1.7-.2h.2c.5 0 1.1.2 1.6.4.9.5 1.6 1.2 2.3 2 .7.8 1.2 1.7 1.7 2.6.2.3.3.6.4.9l.1.2c.4 1 .6 2.3.6 3.7v4.3c0 .6-.1 1.3-.3 1.9 0 .1 0 .2-.1.2 0 .1-.1.2-.1.4l-.1.4v.1c0 .1 0 .1-.1.2l-.3.9c0 .1 0 .2-.1.2 0 .1 0 .2-.1.2v.3c.1.1.1.2.2.4 1.2 1.7 2.3 3.6 3.1 5.8.8 2.2 1.3 4.6 1.5 7.3 0 0 .8-.7.9-.8C37.9 30.4 40 25.3 40 20c0-5.3-2.1-10.4-5.8-14.2zm-12 14.8c-.4-.1-.7-.2-1-.2l-1 .2c.1-.2.2-.4.4-.6.2-.2.4-.4.7-.6l.2-.1.2-.1.4-.1h.2l2 .3h.3c.2 0 .3 0 .4-.1l.2-.1c0 .1 0 .1-.1.2 0 .1 0 .1-.1.2 0 .1-.1.2-.1.2l-.1.2c0 .1-.1.1-.2.2-.3.3-.7.4-1.2.4h-.3c-.2.1-.5.1-.9 0z"></path><path fill="#03973D" d="M55 22.5c-1.5 0-3 1.2-3 2.7 0 3.1 4.2 2.9 6.8 2.6v1.4c-1.3.8-2.5 1.3-3.8 1.3-5 0-7.3-4.5-7.3-8.9 0-4 2.6-8.6 7.1-8.6 3.7 0 6.7 3.3 6.7 7 0 1.2-1.8 2.9-2.9 2.9l-3.6-.4zm-2.6-4.1c0 .6 1.5 1.8 2.2 1.8.9 0 2.3-1.3 2.3-2.1 0-1-1.3-2.2-2.3-2.2-1.3 0-2.2 1.1-2.2 2.5zm17.2 11.2c-2 0-3.8-.7-4.1-3.3-.3-2.7-.4-5.4-.4-8.2 0-3 .2-7.4.6-10.5.4-.4 1-.9 1.5-.9l.4.2c.9 2.2 1.2 5.9 1.2 7.9l-.3 7.1c0 3.7 1.5 4.5 3.1 4.8.8.2 1.7.1 2.3.2.9.1 1.4.5 1.5 1.2.1.8-.9 1.4-2.4 1.5-1.1.1-2.5 0-3.4 0zm17.8 0c-.8.3-2.9.4-3.6.4-3.4 0-5.8.2-6.9-4.1-.1-.4-.1-.8-.1-1.2 0-3.4 1.8-4.8 3.4-5.7.8-.5 1.6-.8 2.2-1.1.5-.3.8-.6.8-1 0-.8-1.3-.8-1.8-1-.7-.3-1.3-.6-1.3-1.5 0-1.1 1.8-1.5 2.7-1.5 4.6 0 5.4 3.9 5.4 7.4l.5 5.8c0 .7-.1 1.5-.2 2.2-.4.3-.4 1-1.1 1.3zm-7.2-5.1c0 1 .7 2.1 1.6 2.1 1.8 0 3-1.4 2.9-3.3-.1-1.7-1.4-1.9-2.1-1.9-1 0-2.4 2-2.4 3.1zm25.6 5.1c-.3 0-.7-.2-1-.3-1.9-2.4-1-5.2-1-7.9 0-.6.1-3.3-.6-3.3-2.8 0-1.8 5.4-1.8 7 0 .9-.6 4.3-1.9 4.3-2.5 0-1.8-6-1.8-7.5 0-.9.2-4-1.1-4S95 20.1 95 21.1l.3 4.4c0 1.3-.5 4-2.2 4-.9 0-1.6-3.1-1.8-6.5-.1-3.2 0-6.6 0-7.5 0-1.6 1.2-2 2.3-2l7.4-.6c6 0 6.7 4.3 6.7 9.1 0 .7.1 2.4 0 4-.3 2-.9 3.6-1.9 3.6zm14.8 0c-.8.3-2.9.4-3.6.4-3.4 0-5.8.2-6.9-4.1-.1-.4-.1-.8-.1-1.2 0-3.4 1.8-4.8 3.4-5.7.8-.5 1.6-.8 2.2-1.1.6-.3.8-.6.8-1 0-.8-1.3-.8-1.8-1-.7-.3-1.3-.6-1.3-1.5 0-1.1 1.8-1.5 2.7-1.5 4.6 0 5.4 3.9 5.4 7.4l.5 5.8c0 .7-.1 1.5-.2 2.2-.4.3-.4 1-1.1 1.3zm-7.2-5.1c0 1 .7 2.1 1.6 2.1 1.8 0 3-1.4 2.9-3.3-.1-1.7-1.4-1.9-2.1-1.9-.9 0-2.4 2-2.4 3.1z"></path></svg>