<svg width="50" height="50" fill="#03973D" xmlns="http://www.w3.org/2000/svg"><path d="M2.95 10.13a.84.84 0 0 0 1.27-.5 1.65 1.65 0 0 1 2.47-1.06.83.83 0 1 0 .86-1.42 3.32 3.32 0 0 0-1.72-.48 3.31 3.31 0 0 0-2.9 1.7A2.5 2.5 0 0 0 0 10.83a2.5 2.5 0 0 0 2.5 2.5H5a.83.83 0 1 0 0-1.66H2.5a.83.83 0 0 1-.83-.84c0-.62.74-1.04 1.28-.7zm38.47-5.37c.24-.24.75-.6 1.08-.6.67 0 .82.46.83.84v.01a.83.83 0 0 0 1.67 0c.01-.39.16-.84.83-.84.33 0 .84.35 1.08.59a.83.83 0 1 0 1.18-1.18c-.11-.11-1.11-1.08-2.26-1.08-.73 0-1.27.24-1.66.59-.4-.35-.94-.59-1.67-.59-1.15 0-2.15.97-2.26 1.08a.83.83 0 0 0 1.18 1.18zm6.65 25.3a5.02 5.02 0 0 0-4.74-3.4.83.83 0 1 0 0 1.67 3.34 3.34 0 0 1 3.27 2.68.84.84 0 0 0 .87.66h.04a.83.83 0 0 1-.01 1.66h-9.17a.83.83 0 1 0 0 1.67h9.17a2.5 2.5 0 0 0 2.5-2.5 2.5 2.5 0 0 0-1.93-2.43z"/><path d="M25 0h-.08C14.5.05 6.67 7.91 6.67 18.33c0 5.1 3.27 9.52 6.43 13.8 2.7 3.64 5.24 7.08 5.24 10.37v5a2.5 2.5 0 0 0 2.5 2.5h8.33a2.5 2.5 0 0 0 2.5-2.5v-5a.83.83 0 0 0-.84-.83H22.5a.83.83 0 1 0 0 1.66H30v4.17c0 .46-.37.83-.83.83h-8.34a.83.83 0 0 1-.83-.83v-5c0-3.84-2.7-7.49-5.56-11.36-3-4.07-6.1-8.27-6.1-12.8 0-8.52 5.75-15.14 13.78-16.43C19.27 4.41 15 9.6 15 18.33c0 6.64 2.12 11.13 3.82 14.74 1.13 2.38 2.01 4.26 2.01 6.1a.83.83 0 1 0 1.67 0c0-2.21-1-4.34-2.17-6.81-1.63-3.46-3.66-7.76-3.66-14.03 0-9.21 5.08-14.13 7.5-15.94v36.78a.83.83 0 1 0 1.66 0V2.39c2.42 1.81 7.5 6.73 7.5 15.94 0 6.27-2.03 10.57-3.66 14.03-1.16 2.46-2.17 4.6-2.17 6.8a.83.83 0 1 0 1.67 0c0-1.83.88-3.71 2-6.1 1.71-3.6 3.83-8.09 3.83-14.73C35 9.6 30.73 4.4 27.88 1.91c8.03 1.3 13.79 7.91 13.79 16.42 0 5.03-3.28 9.12-6.18 12.72-2.2 2.74-4.27 5.32-4.65 8a.83.83 0 1 0 1.65.24c.32-2.23 2.25-4.64 4.3-7.2 3.07-3.81 6.54-8.14 6.54-13.76C43.33 7.88 35.45 0 25 0z"/></svg>