<svg width="50" height="42" fill="#03973D" xmlns="http://www.w3.org/2000/svg"><path d="M46.601 3.495c-2.043-2.1-4.756-3.337-7.639-3.48-2.76-.139-5.46.731-7.635 2.453l-.548-.065c-1.65-.195-5.085-.6-5.893-.699a4.276 4.276 0 0 0-3.282.993l-7 5.955a7.292 7.292 0 0 0-2.319 3.685c-.773 2.878-2.206 7.962-3.213 10.008L6 25.504l-.203-.208a1.673 1.673 0 0 0-2.414 0L.499 28.26a1.793 1.793 0 0 0 0 2.483l.765.787a.702.702 0 0 0 1.012 0 .75.75 0 0 0 0-1.041l-.765-.787a.287.287 0 0 1 0-.4l2.884-2.966a.27.27 0 0 1 .39 0l.708.728 4.514 4.642 5.224 5.372a.287.287 0 0 1 0 .401l-2.884 2.966a.27.27 0 0 1-.39 0l-6.443-6.627a.702.702 0 0 0-1.012 0 .75.75 0 0 0 0 1.041l6.443 6.627a1.678 1.678 0 0 0 2.414 0l2.884-2.966c.322-.332.5-.772.5-1.241 0-.47-.177-.91-.5-1.242l-.206-.211.448-.461a3.231 3.231 0 0 1 1.419-.854l5.246-1.817a9.787 9.787 0 0 0 4.506-3.28l2.627-3.418 7.013-7.212c.337.067.739.113 1.115.119v.585c0 .227.22.435.532.435.276 0 .552-.208.552-.435v-.642c1.983-.283 3.343-1.568 3.343-3.891 0-2.57-1.745-3.4-3.343-4.005V7.116c1.286.095 1.763.7 2.204.7.55 0 .808-.718.808-1.077 0-.926-1.763-1.323-3.012-1.36v-.51c0-.227-.276-.435-.552-.435-.312 0-.532.208-.532.434v.548c-1.745.19-3.49 1.134-3.49 3.514 0 2.418 1.837 3.098 3.49 3.702v1.46c-.504-.616-1.329-.972-2.39-1.03-2.427-.136-5.78 1.255-7.634 3.162l-3.267 3.36c-.23.236-.537.366-.865.366h-.027c-.494 0-1.176-.549-1.363-1.077V11.63l2.345-1.985 1.854-.292a12.32 12.32 0 0 0 .002 5.17.72.72 0 0 0 .853.56.736.736 0 0 0 .544-.877 10.793 10.793 0 0 1 .252-5.498l.006-.02.002-.006a10.404 10.404 0 0 1 3.247-4.86l.017-.015.003-.002a9.965 9.965 0 0 1 6.903-2.321c2.527.126 4.905 1.21 6.696 3.052 1.922 1.976 2.98 4.603 2.98 7.398 0 2.794-1.059 5.422-2.98 7.398-2.533 2.606-6.266 3.653-9.74 2.733a.714.714 0 0 0-.872.53.738.738 0 0 0 .515.895 11.345 11.345 0 0 0 5.867-.015 11.527 11.527 0 0 0 5.242-3.102C48.793 18.119 50 15.122 50 11.934c0-3.187-1.207-6.184-3.399-8.439zm-7.217 9.553c.9.396 1.617.925 1.617 2.115 0 1.077-.625 1.681-1.617 1.87v-3.985zM36.757 8.74c0-.983.735-1.455 1.764-1.587v3.438c-.974-.378-1.764-.775-1.764-1.851zm-3.28 11.89c-.121-.125.898 1.07.898.894 0-.176.4-.4.52-.525l1.279-1.061c.374-.385.266-2.355.266-2.355l-2.963 3.047zM27.508 7.794l-2.71.428a.706.706 0 0 0-.346.159l-2.758 2.334a.744.744 0 0 0-.261.569v7.7c0 .063.009.127.025.19.31 1.197 1.605 2.248 2.77 2.248h.027a2.6 2.6 0 0 0 1.878-.798l3.266-3.36c1.575-1.619 4.51-2.845 6.545-2.733.464.026 1.081.137 1.383.522a.72.72 0 0 0 .051.06c.152.155.563.579.038 1.385-1.242 1.359-.49.586-1.705 1.835l-1.501 1.544-.733.754-1.012 1.04-3.223 3.315a.747.747 0 0 0-.056.064l-2.653 3.451a8.355 8.355 0 0 1-3.844 2.8l-5.228 1.81a4.66 4.66 0 0 0-1.988 1.214l-.448.46-4.006-4.12-4.007-4.12 3.15-3.24a.735.735 0 0 0 .129-.18c1.07-2.099 2.573-7.415 3.374-10.396a5.823 5.823 0 0 1 1.851-2.943l7-5.955a2.864 2.864 0 0 1 2.2-.665c.71.087 3.426.408 5.202.617a11.836 11.836 0 0 0-2.41 4.011z"/></svg>