<svg width="36" height="36" viewBox="0 0 36 36" fill="none" xmlns="http://www.w3.org/2000/svg">
<g clip-path="url(#clip0)">
<path d="M35.3623 32.1952L32.9595 25.2025C34.1152 22.8664 34.7264 20.2625 34.7305 17.6425C34.7375 13.1306 32.9918 8.8644 29.8149 5.62991C26.6375 2.39481 22.4034 0.573853 17.8927 0.502281C15.5294 0.464342 13.2362 0.89979 11.0734 1.79509C8.98724 2.65867 7.11646 3.90958 5.51302 5.51301C3.90952 7.11645 2.65861 8.98724 1.7951 11.0734C0.899798 13.2362 0.464828 15.5306 0.502221 17.8927C0.573656 22.4034 2.39468 26.6375 5.62978 29.8149C8.85798 32.9856 13.1132 34.7308 17.6153 34.7307C17.6242 34.7307 17.6335 34.7307 17.6423 34.7307C20.2624 34.7266 22.8662 34.1154 25.2024 32.9597L32.1951 35.3625C32.464 35.4549 32.7396 35.5 33.0122 35.5C33.6599 35.5 34.2899 35.2455 34.7676 34.7677C35.4463 34.089 35.6743 33.1032 35.3623 32.1952ZM33.3002 33.3004C33.2314 33.3693 33.084 33.4737 32.8693 33.4L25.4596 30.8539C25.35 30.8163 25.236 30.7976 25.1224 30.7976C24.9549 30.7976 24.7882 30.8381 24.6372 30.918C22.4957 32.051 20.0758 32.6518 17.639 32.6555C9.46665 32.6687 2.70646 26.0308 2.57699 17.8598C2.51185 13.7487 4.07563 9.885 6.98029 6.98035C9.88494 4.07576 13.7475 2.51225 17.8597 2.57726C26.0307 2.7068 32.6681 9.46363 32.6553 17.6393C32.6515 20.0761 32.0507 22.496 30.9178 24.6374C30.7837 24.8909 30.7606 25.1886 30.8537 25.4598L33.3998 32.8695C33.4736 33.0841 33.3691 33.2317 33.3002 33.3004Z" fill="white"/>
<path d="M17.4486 25.2969C16.9059 25.2969 16.3859 25.7741 16.411 26.3344C16.4362 26.8965 16.8669 27.372 17.4486 27.372C17.9913 27.372 18.5112 26.8948 18.4861 26.3344C18.461 25.7722 18.0303 25.2969 17.4486 25.2969Z" fill="white"/>
<path d="M17.4473 9.22852C14.6009 9.22852 12.2852 11.5443 12.2852 14.3907C12.2852 14.9637 12.7497 15.4282 13.3227 15.4282C13.8957 15.4282 14.3603 14.9637 14.3603 14.3907C14.3603 12.6885 15.7452 11.3036 17.4473 11.3036C19.1494 11.3036 20.5343 12.6885 20.5343 14.3907C20.5343 16.0928 19.1494 17.4777 17.4473 17.4777C16.8743 17.4777 16.4097 17.9423 16.4097 18.5153V22.747C16.4097 23.32 16.8743 23.7846 17.4473 23.7846C18.0203 23.7846 18.4849 23.3201 18.4849 22.747V19.448C20.8357 18.9664 22.6095 16.8818 22.6095 14.3907C22.6095 11.5443 20.2937 9.22852 17.4473 9.22852Z" fill="white"/>
</g>
<defs>
<clipPath id="clip0">
<rect width="35" height="35" fill="white" transform="translate(0.5 0.5)"/>
</clipPath>
</defs>
</svg>
