<svg width="50" height="50" fill="#03973D" xmlns="http://www.w3.org/2000/svg"><path d="M38.31 22.08a2.87 2.87 0 0 0-2.87-2.87h-5.28a8.67 8.67 0 0 0 2.29-4.56 3.17 3.17 0 0 0-.77-2.44 2.75 2.75 0 0 0-2.05-.95h-.03c-.76 0-1.48.3-2.02.83a2.83 2.83 0 0 0-.85 2.02c-.02.17-.32.74-1.04 1.43a8.16 8.16 0 0 1-3.1 1.81c-.6.2-1.13.55-1.6 1.05-.25.26-.62.63-1.08 1a1.6 1.6 0 0 0-.76-.2h-5a1.62 1.62 0 0 0-1.63 1.63v13.36a1.62 1.62 0 0 0 1.62 1.61h5.01c.61 0 1.14-.33 1.42-.83h12.78a2.46 2.46 0 0 0 2.11-3.7 2.45 2.45 0 0 0 .84-3.34 2.45 2.45 0 0 0 .75-3.48 2.87 2.87 0 0 0 1.26-2.37zm-2.87 1.3h-.42a.78.78 0 1 0 0 1.57.89.89 0 0 1 0 1.77h-.83a.78.78 0 0 0 0 1.57.89.89 0 0 1 0 1.77h-.84a.78.78 0 0 0 0 1.57.89.89 0 0 1 0 1.77H20.77v-7.56a.78.78 0 0 0-1.57 0v8.35a.05.05 0 0 1-.05.05h-5a.05.05 0 0 1-.06-.05V20.83c0-.03.02-.06.05-.06h5.01c.03 0 .05.03.05.06v1.67a.78.78 0 0 0 1.57 0v-1.78a11.89 11.89 0 0 0 1.36-1.25c.29-.3.6-.52.94-.63a9.67 9.67 0 0 0 3.8-2.26c.9-.88 1.43-1.8 1.43-2.46a1.3 1.3 0 0 1 1.32-1.29c.43 0 .73.23.9.42.28.32.42.78.37 1.23-.17 1.56-1.42 3.48-3.17 4.9a.78.78 0 0 0 .5 1.4h7.22a1.3 1.3 0 0 1 0 2.6z"/><path d="M16.65 30.89a.79.79 0 0 0-.8.79.79.79 0 0 0 .8.78.79.79 0 0 0 .78-.78.79.79 0 0 0-.78-.8z"/><path d="M48.6 25l1.35-3.56a.78.78 0 0 0-.12-.77l-2.38-2.97.18-3.8a.78.78 0 0 0-.35-.69l-3.18-2.09-1-3.67a.78.78 0 0 0-.56-.54l-3.67-1-2.08-3.19a.78.78 0 0 0-.7-.35l-3.8.18L29.32.17a.78.78 0 0 0-.76-.12L25 1.4 21.44.05a.78.78 0 0 0-.76.12L17.7 2.55l-3.8-.18a.78.78 0 0 0-.7.35L11.14 5.9l-3.67 1a.78.78 0 0 0-.55.56l-1 3.67-3.18 2.08a.78.78 0 0 0-.36.7l.18 3.8-2.38 2.97a.78.78 0 0 0-.12.76L1.4 25 .05 28.56a.78.78 0 0 0 .12.77l2.38 2.97-.18 3.8c-.01.27.12.53.35.68l3.18 2.1 1 3.66a.78.78 0 0 0 .56.55l3.67 1 2.08 3.19a.79.79 0 0 0 .7.35l3.8-.18 2.96 2.38a.8.8 0 0 0 .77.12L25 48.6l3.56 1.35a.78.78 0 0 0 .77-.12l2.97-2.38 3.8.18c.27.01.53-.12.68-.35l2.1-3.18 3.66-1a.78.78 0 0 0 .55-.56l1-3.67 3.19-2.08a.78.78 0 0 0 .35-.7l-.18-3.8 2.38-2.97a.78.78 0 0 0 .12-.76L48.6 25zm-1.57.28l1.3 3.42-2.29 2.85a.78.78 0 0 0-.17.52l.17 3.65-3.05 2a.78.78 0 0 0-.33.46l-.96 3.52-3.52.96a.78.78 0 0 0-.45.33l-2 3.05-3.66-.17a.78.78 0 0 0-.52.17l-2.85 2.29-3.42-1.3a.78.78 0 0 0-.56 0l-3.41 1.3-2.86-2.29a.78.78 0 0 0-.52-.17l-3.65.17-2-3.05a.78.78 0 0 0-.46-.33L8.3 41.7l-.96-3.52a.78.78 0 0 0-.33-.45l-3.05-2 .17-3.66a.78.78 0 0 0-.17-.52L1.67 28.7l1.3-3.42a.78.78 0 0 0 0-.56l-1.3-3.41 2.29-2.86a.78.78 0 0 0 .17-.52l-.17-3.65 3.05-2a.78.78 0 0 0 .33-.46L8.3 8.3l3.52-.96a.78.78 0 0 0 .45-.33l2-3.05 3.66.17a.78.78 0 0 0 .52-.17l2.86-2.29 3.41 1.3a.78.78 0 0 0 .56 0l3.41-1.3 2.86 2.29c.14.12.33.18.52.17l3.65-.17 2 3.05c.11.16.27.28.46.33l3.52.96.96 3.52c.05.19.17.35.33.45l3.05 2-.17 3.66a.78.78 0 0 0 .17.52l2.29 2.86-1.3 3.41a.78.78 0 0 0 0 .56z"/><path d="M39.7 11.48a20.41 20.41 0 0 0-1.22-1.23.78.78 0 1 0-1.06 1.16 18.9 18.9 0 0 1 1.13 1.13.78.78 0 0 0 1.11.05.78.78 0 0 0 .05-1.1zm-4-3.36A20.06 20.06 0 0 0 22.9 5.1a20.03 20.03 0 0 0-12.06 5.75A19.93 19.93 0 0 0 5 24.18c-.2 5 1.45 9.85 4.66 13.66a.78.78 0 0 0 1.1.1.78.78 0 0 0 .1-1.1 18.36 18.36 0 0 1-4.3-12.6 18.37 18.37 0 0 1 5.39-12.28 18.46 18.46 0 0 1 11.11-5.3 18.49 18.49 0 0 1 11.8 2.78.78.78 0 0 0 .84-1.32zm6.14 6.14a.78.78 0 1 0-1.32.84 18.5 18.5 0 0 1 2.78 11.8A18.46 18.46 0 0 1 38 38.02a18.37 18.37 0 0 1-12.28 5.38 18.36 18.36 0 0 1-12.6-4.3.78.78 0 1 0-1 1.2 19.91 19.91 0 0 0 13.67 4.66 19.93 19.93 0 0 0 13.32-5.83 20.03 20.03 0 0 0 5.75-12.07 20.06 20.06 0 0 0-3.02-12.8z"/></svg>