<svg width="50" height="50" fill="#03973D" xmlns="http://www.w3.org/2000/svg"><path d="M34.2 36.7a.8.8 0 1 0 0 1.6h5a.8.8 0 1 0 0-1.6h-5zm-10-10h-3.4a.8.8 0 0 0-.8.8v5a.8.8 0 1 0 1.7 0v-4.2h1.6v4.2c0 .5.4.8.9.8h3.3c.5 0 .8-.3.8-.8V21.7H30v10.8c0 .5.4.8.8.8h3.4c.4 0 .8-.3.8-.8V25h1.7v7.5c0 .5.3.8.8.8h3.3c.5 0 .9-.3.9-.8V15h.8a.8.8 0 1 0 0-1.7h-1.7a.8.8 0 0 0-.8.9v17.5h-1.7v-7.5a.8.8 0 0 0-.8-.9h-3.3a.8.8 0 0 0-.9.9v7.5h-1.6V20.8a.8.8 0 0 0-.9-.8h-3.3a.8.8 0 0 0-.8.8v10.9H25v-4.2a.8.8 0 0 0-.8-.8z"/><path d="M45.8 6.7H16.7a.8.8 0 1 0 0 1.6h29.1c1.4 0 2.5 1.2 2.5 2.5v37.5H15V10.8a4.2 4.2 0 0 0-4.2-4.1 4.2 4.2 0 0 0-4.1 4.1v28.4c0 1.3-1.2 2.5-2.5 2.5a2.5 2.5 0 0 1-2.5-2.5V1.7H35v2.5a.8.8 0 1 0 1.7 0V.8a.8.8 0 0 0-.9-.8H.8a.8.8 0 0 0-.8.8v38.4a4.2 4.2 0 0 0 4.2 4.1 4.2 4.2 0 0 0 4.1-4.1V10.8a2.5 2.5 0 0 1 5 0v30.9H9.2a.8.8 0 1 0 0 1.6h4.1v5.9c0 .4.4.8.9.8h35c.4 0 .8-.4.8-.8V10.8a4.2 4.2 0 0 0-4.2-4.1z"/><path d="M20.8 38.3h10a.8.8 0 1 0 0-1.6h-10a.8.8 0 1 0 0 1.6zm0 5h21.7a.8.8 0 1 0 0-1.6H20.8a.8.8 0 1 0 0 1.6z"/></svg>