<svg width="40" height="50" fill="none" xmlns="http://www.w3.org/2000/svg"><path d="M19.168 25.833v15a.834.834 0 0 0 1.667 0v-15a.834.834 0 0 0-1.667 0zM23.334 15a3.337 3.337 0 0 0-3.333-3.333A3.337 3.337 0 0 0 16.668 15a3.337 3.337 0 0 0 3.333 3.334A3.337 3.337 0 0 0 23.334 15zm-3.333 1.667c-.919 0-1.666-.748-1.666-1.667s.747-1.666 1.666-1.666c.92 0 1.667.747 1.667 1.666 0 .92-.748 1.667-1.667 1.667z" fill="#03973D"/><path d="M12.501 38.333c.46 0 .834-.373.834-.833V14.167c0-.05.045-4.452 2.843-8.157.736.275 2.067.657 3.823.657 1.761 0 3.089-.383 3.82-.66 2.788 3.696 2.847 8.111 2.847 8.16V37.5a.834.834 0 0 0 1.666 0V14.167c0-.253-.05-6.23-4.41-10.59L20.59.245a.832.832 0 0 0-1.178 0L16.08 3.578c-4.361 4.36-4.411 10.336-4.411 10.589V37.5c0 .46.373.833.833.833zm7.5-36.321l2.633 2.632A9.692 9.692 0 0 1 20 5a9.74 9.74 0 0 1-2.633-.355L20 2.012zM2.501 43.334a.834.834 0 0 0-.833.833v1.667a.834.834 0 0 0 1.667 0v-1.667a.834.834 0 0 0-.834-.833zM5.833 43.334a.834.834 0 0 0-.833.833v5a.834.834 0 0 0 1.667 0v-5a.833.833 0 0 0-.834-.833zM37.501 43.334a.834.834 0 0 0-.833.833v1.667a.834.834 0 0 0 1.667 0v-1.667a.834.834 0 0 0-.834-.833z" fill="#03973D"/><path d="M34.937 31.119l-1.604-.8v-6.152c0-1.378-1.121-2.5-2.5-2.5a.834.834 0 0 0 0 1.667c.46 0 .834.374.834.833v6.667c0 .315.178.604.46.745l2.074 1.035c1.34.66 4.132 2.035 4.132 3.22V40h-9.166a.84.84 0 0 0-.588.243c-.032.03-3.19 3.09-8.58 3.09-5.39 0-8.547-3.06-8.577-3.089a.83.83 0 0 0-.589-.244H1.667v-4.166c0-1.185 2.791-2.56 4.132-3.22l2.074-1.035a.834.834 0 0 0 .46-.745v-6.667c0-.46.374-.833.834-.833a.834.834 0 0 0 0-1.667 2.503 2.503 0 0 0-2.5 2.5v6.152l-1.605.8C3.047 32.112 0 33.613 0 35.834v5c0 .46.373.833.833.833h9.677C11.443 42.479 14.764 45 20 45c5.236 0 8.556-2.52 9.49-3.333h9.677c.46 0 .833-.373.833-.833v-5c0-2.221-3.047-3.722-5.063-4.715z" fill="#03973D"/><path d="M9.17 43.334a.834.834 0 0 0-.834.833v3.334a.834.834 0 0 0 1.666 0v-3.334a.834.834 0 0 0-.833-.833zM34.17 43.334a.834.834 0 0 0-.834.833v5a.834.834 0 0 0 1.666 0v-5a.834.834 0 0 0-.833-.833zM30.833 43.334a.834.834 0 0 0-.833.833v3.334a.834.834 0 0 0 1.667 0v-3.334a.833.833 0 0 0-.834-.833z" fill="#03973D"/></svg>
